<svg width="100" height="100" viewBox="0 0 100 100" fill="none" xmlns="http://www.w3.org/2000/svg">
<path d="M63 12C60.8521 11.4142 60.5 13 57.5 10.5C61 10.5 61.5 6.88463 65.5 7.50001C72 8.50001 73.0732 18.3639 64 20C53.607 21.8741 44.188 19.6637 38 23C26.0283 29.4546 26 45 30 50.5C41.4543 66.2496 66.5 56.6416 66.5 34.5C66.5 22.5 77 19.2083 83.5 23C88.5 25.9167 85.5 35.5 78 33C82 31 82.5 27 77 27C74 27 72 30.5 72 34C72 45 69.5 53.94 63.5 58.5C51 68 38 68.5 27 60C17.5 66.5 21 79.5 42 76C54.5 73.5 59 63.5 73 55C82 49.5 89.5 54 91.5 63.5C92.7631 69.5 91.251 73.3482 89.5 76.5C84.5 85.5 74 85 70.5 83.5C63.5 80.5 59 84.5 59 87.5C59.5 90 63 90.5 66.5 88.5C65 91 63.9999 92.5 59.5 92.5C55 92.5 52.3235 85.5 55.5 82.5C64.5 74 73 81.1429 78 79C90.8333 73.5 80.5 56.5 73 61.5C64.4234 67.2177 61.1922 73.5 53.5 78.5C43.5 85 29 86.6667 21.5 82.5C3.5 72.5 11.5 61.5 22.5 55C20 52 20 49 20 45C15 41 10.5 48 15 52C10.5 52.5 7.87492 48 8.99996 43.5C9.99996 39.5 12.5 36 20 36C22.5 26.5 29.5 15 46.5 16.5C54 17.1618 60.5 17.5 64 15C65.5 13.9286 65.1478 12.5858 63 12Z" fill="white" stroke="white"/>
</svg>
