<svg width="100" height="100" viewBox="0 0 100 100" fill="none" xmlns="http://www.w3.org/2000/svg">
<path fill-rule="evenodd" clip-rule="evenodd" d="M11.5 13C11.5 23 11.5 30 13 36.5L28.5 38C30.5 32.5 32 28 32 20.5C25.5 17.5 20 15.5 11.5 13ZM16 20L17.5 32.5H25L27 24L16 20Z" fill="white"/>
<path d="M13 36.5L12.5128 36.6124L12.5937 36.963L12.9518 36.9977L13 36.5ZM11.5 13L11.6411 12.5203L11 12.3318V13H11.5ZM28.5 38L28.4518 38.4977L28.8375 38.535L28.9699 38.1709L28.5 38ZM32 20.5H32.5V20.1801L32.2095 20.046L32 20.5ZM17.5 32.5L17.0036 32.5596L17.0564 33H17.5V32.5ZM16 20L16.1709 19.5301L15.4067 19.2522L15.5036 20.0596L16 20ZM25 32.5V33H25.396L25.4867 32.6145L25 32.5ZM27 24L27.4867 24.1145L27.5885 23.682L27.1709 23.5301L27 24ZM13.4872 36.3876C12.0027 29.9546 12 23.0174 12 13H11C11 22.9826 10.9973 30.0454 12.5128 36.6124L13.4872 36.3876ZM28.5482 37.5023L13.0482 36.0023L12.9518 36.9977L28.4518 38.4977L28.5482 37.5023ZM31.5 20.5C31.5 27.9131 30.0231 32.3483 28.0301 37.8291L28.9699 38.1709C30.9769 32.6517 32.5 28.0869 32.5 20.5H31.5ZM11.3589 13.4797C19.8416 15.9746 25.3177 17.9666 31.7905 20.954L32.2095 20.046C25.6823 17.0334 20.1584 15.0254 11.6411 12.5203L11.3589 13.4797ZM17.9964 32.4404L16.4964 19.9404L15.5036 20.0596L17.0036 32.5596L17.9964 32.4404ZM25 32H17.5V33H25V32ZM26.5133 23.8855L24.5133 32.3855L25.4867 32.6145L27.4867 24.1145L26.5133 23.8855ZM15.8291 20.4699L26.8291 24.4699L27.1709 23.5301L16.1709 19.5301L15.8291 20.4699Z" fill="white"/>
<path d="M58 90C58 69 68 53.5 86.5 39.5C72.5 54.5 64 70 67.5 77C70 80.5 85.3494 70 82 65C80.9952 63.5 74.3571 65.5 73.5 68.5C72.6429 71.5 73.5 71 75 71.5C73.5 73 72 72 71.5 70.5C70.5 67.5 72.5 61 80.5 61C85 61 89 63.2083 86.5 68C80.5 79.5 68 84 58 90Z" fill="white" stroke="white"/>
<path d="M31.5 81.5C33.5 83 35.5 86.5 35.5 89C29 86 23.5 87.5 20 86C14.5 83 12.5 80.5 11 74C10.5384 72 11 66 14.5 64C19.5 61 24.4 63.5 26.5 67C28 69.5 28 73 26 76C23.5 77 20.5 76.5 19 74C21 74.5 24 74.5 24.5 72C25.0883 69.0583 23 65.5 19.5 66C16 66.5 14.5 69 14 71.5C13.5 74 17 79 21 81C26 81 30.5 80.75 31.5 81.5Z" fill="white" stroke="white"/>
<path d="M48.6681 89.9959C35.3759 69.8106 27.8519 58.3848 10 44.5C26.5 49 39.5 60 46.5 71C55 50 60.5 41.5 72.5 21C55.5 16 48.7059 22.5 45 33C42 41.5 38 45 29 44.5C44 39 36.75 26 42 19C51 6.99997 69.5 8 87 17C69.5 40 56.5 62.5 49 90.5L48.6681 89.9959Z" fill="white" stroke="white"/>
</svg>
