<svg width="100" height="100" viewBox="0 0 100 100" fill="none" xmlns="http://www.w3.org/2000/svg">
<path d="M25 36C19.5 26 14.5 20 5 10C19.5 17.5 27 18.5 43 18.5C46.5 11 55 12.5 57 18.5C71.5 18.5 79.5 16.5 94.5 8.5C75 35.5 64.5 57.5 51.5 87.5C43 68 38 57.5 27 40.5C38 45 45.5 46.5 60.5 45C51.5 51.5 43 47 38 48.5C45.5 57.5 47 62 51.5 70C58 54.5 63 46 74 30.5L71.5 26C65 27 59 27 55 27L50.5 36L45.5 27C38 27 32.5 27 26 26L25 36Z" fill="white" stroke="white"/>
<path d="M80.5 58.5C84.5 51.5 85.0474 47.1152 87 39.5C93 44 95.5 48.5 98 54C91.5 55 87 55.5 80.5 58.5Z" fill="white" stroke="white"/>
<path d="M21.5 59C17.5 52 16.9526 47.6152 15 40C9 44.5 6.5 49 4 54.5C10.5 55.5 15 56 21.5 59Z" fill="white" stroke="white"/>
<path d="M42.5 85.5C41 77.5 40 74 37 67C32 70 29 72.5 26 77.5C29.5 81 35 85.5 42.5 85.5Z" fill="white" stroke="white"/>
<path d="M60 85.5C61.5 77.5 62.5 74 65.5 67C70.5 70 73.5 72.5 76.5 77.5C73 81 67.5 85.5 60 85.5Z" fill="white" stroke="white"/>
</svg>
