<svg width="100" height="100" viewBox="0 0 100 100" fill="none" xmlns="http://www.w3.org/2000/svg">
<g clip-path="url(#clip0_61_4)">
<path d="M23.5 51.5C23.5 51.5 -7.99994 87 2.00002 79.5C12 72 35 71.5 41 72C41 51.5 28.5959 41.6324 23.5 40.5C17.5 39.1667 16.5 28 28.5 27C26.5 25 21.7 25.5 20.5 26C15 28.2917 30 20 28.5 10.5C24.5 18 22 19 18.5 21C10.5 25.5715 13.5 45 23.5 48C31 50.25 30.5 61 30.5 65.5C25.5 65.5 23 65.5 18.5 67L27.5 56L23.5 51.5Z" fill="white" stroke="white"/>
<path d="M78.5 52C78.5 52 110 87.5 100 80C90 72.5 67 72 61 72.5C61 52 73.4041 42.1324 78.5 41C84.5 39.6667 85.5 28.5 73.5 27.5C75.5 25.5 80.3 26 81.5 26.5C87 28.7917 72 20.5 73.5 11C77.5 18.5 80 19.5 83.5 21.5C91.5 26.0715 88.5 45.5 78.5 48.5C71 50.75 71.5 61.5 71.5 66C76.5 66 79 66 83.5 67.5L74.5 56.5L78.5 52Z" fill="white" stroke="white"/>
<path d="M42.5 77.5L33.5 76.5C41 83 47.5 92 51 99.5C54.5 92 60.5 83.5 68 76.5L59.5 77.5C57 83.5 54.5 85 51 86.5C47 85 44.5 82.5 42.5 77.5Z" fill="white" stroke="white"/>
<path d="M35 44.5L32 41.5C39.5 33 39.5 24 39.5 11.5L43 21.5C48 13.5 48.5 10 50.5 0.5C53 10 53 14.5 58 21.5L61.5 11.5C63 23.5 60.5 30 70 41.5L66.5 44.5C61.5 37 58 33 50.5 25C44 32 39 37 35 44.5Z" fill="white" stroke="white"/>
</g>
<defs>
<clipPath id="clip0_61_4">
<rect width="100" height="100" fill="white"/>
</clipPath>
</defs>
</svg>
