<svg width="100" height="100" viewBox="0 0 100 100" fill="none" xmlns="http://www.w3.org/2000/svg">
<mask id="path-1-inside-1_61_9" fill="white">
<path fill-rule="evenodd" clip-rule="evenodd" d="M14.5 50C20.5 48 22.5 47 25.5 43.5C14.5 35 12.5 23 19.5 20.5C24.5 18.7143 30.5 24 26 31C20.5 35 23.5 39 27.5 41.5C28.5761 40.5135 29.604 39.4627 30.6356 38.4082C35.3555 33.5831 40.1523 28.6793 50 29.5C50 22 49 16.5 46 13C43.8571 10.5 60.2943 7.05848 58 10.5C54.1554 16.2668 53.8582 19.9644 53.4716 24.7749C53.3554 26.2206 53.2311 27.7668 53 29.5C63 29.5 69.5 34 74.5 41.5C81 37.5 78.5 33.5 75.5 29.5C72.5 25.5 76.5 19.5 82.5 20.5C88.5 21.5 89.5634 30.1513 85 35L77 43.5C80.374 46.392 83.7481 47.8901 88.018 49.7859C88.1774 49.8567 88.3381 49.928 88.5 50C82.3216 51.2357 77.8609 56.0978 74.2926 59.9873C72.0855 62.3931 70.2197 64.4268 68.5 65C78 74 77 85 67 87.5C62 88.75 59.5 79.5 67 75C69.3721 73.5768 70.5 69.5 67 67C54.5 73.5 47 73 36.5 67C33 68 32 73.4062 34.5 74.5C42.5 78 42.5 87.5 37.5 87.5C26 87.5 25.5 73 34.5 65C31.7901 63.2579 29.4549 60.9913 27.1172 58.7223C23.4164 55.1302 19.7094 51.5322 14.5 50ZM52 67C61.3888 67 69 59.3888 69 50C69 40.6112 61.3888 33 52 33C42.6112 33 35 40.6112 35 50C35 59.3888 42.6112 67 52 67Z"/>
</mask>
<path fill-rule="evenodd" clip-rule="evenodd" d="M14.5 50C20.5 48 22.5 47 25.5 43.5C14.5 35 12.5 23 19.5 20.5C24.5 18.7143 30.5 24 26 31C20.5 35 23.5 39 27.5 41.5C28.5761 40.5135 29.604 39.4627 30.6356 38.4082C35.3555 33.5831 40.1523 28.6793 50 29.5C50 22 49 16.5 46 13C43.8571 10.5 60.2943 7.05848 58 10.5C54.1554 16.2668 53.8582 19.9644 53.4716 24.7749C53.3554 26.2206 53.2311 27.7668 53 29.5C63 29.5 69.5 34 74.5 41.5C81 37.5 78.5 33.5 75.5 29.5C72.5 25.5 76.5 19.5 82.5 20.5C88.5 21.5 89.5634 30.1513 85 35L77 43.5C80.374 46.392 83.7481 47.8901 88.018 49.7859C88.1774 49.8567 88.3381 49.928 88.5 50C82.3216 51.2357 77.8609 56.0978 74.2926 59.9873C72.0855 62.3931 70.2197 64.4268 68.5 65C78 74 77 85 67 87.5C62 88.75 59.5 79.5 67 75C69.3721 73.5768 70.5 69.5 67 67C54.5 73.5 47 73 36.5 67C33 68 32 73.4062 34.5 74.5C42.5 78 42.5 87.5 37.5 87.5C26 87.5 25.5 73 34.5 65C31.7901 63.2579 29.4549 60.9913 27.1172 58.7223C23.4164 55.1302 19.7094 51.5322 14.5 50ZM52 67C61.3888 67 69 59.3888 69 50C69 40.6112 61.3888 33 52 33C42.6112 33 35 40.6112 35 50C35 59.3888 42.6112 67 52 67Z" fill="white"/>
<path d="M25.5 43.5L26.2593 44.1508L26.9439 43.352L26.1114 42.7087L25.5 43.5ZM14.5 50L14.1838 49.0513L11.1588 50.0596L14.2178 50.9594L14.5 50ZM19.5 20.5L19.1637 19.5583L19.1637 19.5583L19.5 20.5ZM26 31L26.5882 31.8087L26.7398 31.6985L26.8412 31.5407L26 31ZM27.5 41.5L26.97 42.348L27.615 42.7511L28.1757 42.2371L27.5 41.5ZM30.6356 38.4082L29.9207 37.7089L29.9207 37.7089L30.6356 38.4082ZM50 29.5L49.917 30.4965L51 30.5868V29.5H50ZM46 13L45.2407 13.6508L45.2407 13.6508L46 13ZM58 10.5L57.1679 9.9453L57.1679 9.9453L58 10.5ZM53.4716 24.7749L52.4748 24.6947L52.4748 24.6947L53.4716 24.7749ZM53 29.5L52.0088 29.3678L51.8578 30.5H53V29.5ZM74.5 41.5L73.6679 42.0547L74.2028 42.857L75.0241 42.3517L74.5 41.5ZM85 35L85.7282 35.6854L85.7282 35.6854L85 35ZM77 43.5L76.2718 42.8146L75.5538 43.5775L76.3492 44.2592L77 43.5ZM88.018 49.7859L88.4238 48.872L88.4238 48.872L88.018 49.7859ZM88.5 50L88.6961 50.9806L91.7805 50.3637L88.9061 49.0862L88.5 50ZM74.2926 59.9873L73.5557 59.3113L73.5557 59.3113L74.2926 59.9873ZM68.5 65L68.1838 64.0513L66.6014 64.5788L67.8123 65.7259L68.5 65ZM67 87.5L66.7575 86.5299L66.7575 86.5299L67 87.5ZM67 75L67.5145 75.8575L67.5145 75.8575L67 75ZM67 67L67.5812 66.1863L67.0825 65.83L66.5386 66.1128L67 67ZM36.5 67L36.9961 66.1317L36.6304 65.9227L36.2253 66.0385L36.5 67ZM34.5 65L35.1644 65.7474L36.1496 64.8716L35.0408 64.1588L34.5 65ZM27.1172 58.7223L27.8137 58.0047L27.8137 58.0047L27.1172 58.7223ZM24.7407 42.8492C23.2881 44.544 22.1224 45.5826 20.6253 46.4463C19.098 47.3274 17.1867 48.0503 14.1838 49.0513L14.8162 50.9487C17.8133 49.9497 19.902 49.1725 21.6247 48.1787C23.3776 47.1674 24.7119 45.956 26.2593 44.1508L24.7407 42.8492ZM19.1637 19.5583C17.1329 20.2835 15.7325 21.7186 15.0053 23.5911C14.2888 25.4363 14.2441 27.6496 14.7751 29.9728C15.8371 34.6188 19.2455 39.9307 24.8886 44.2913L26.1114 42.7087C20.7545 38.5692 17.6629 33.6312 16.7249 29.5272C16.2559 27.4754 16.3362 25.6887 16.8697 24.3151C17.3925 22.9689 18.3671 21.9665 19.8363 21.4417L19.1637 19.5583ZM26.8412 31.5407C29.2823 27.7434 28.9676 24.1975 27.0965 21.8346C25.2769 19.5367 22.0807 18.5164 19.1637 19.5583L19.8363 21.4417C21.9193 20.6978 24.2231 21.4276 25.5285 23.0761C26.7824 24.6596 27.2177 27.2566 25.1588 30.4592L26.8412 31.5407ZM28.03 40.652C26.0833 39.4353 24.595 37.974 24.1426 36.5161C23.9287 35.8271 23.9396 35.1231 24.2669 34.3793C24.6036 33.614 25.3052 32.7418 26.5882 31.8087L25.4118 30.1913C23.9448 31.2582 22.9589 32.386 22.4362 33.5738C21.9042 34.7831 21.8838 35.9854 22.2324 37.1089C22.905 39.276 24.9167 41.0647 26.97 42.348L28.03 40.652ZM29.9207 37.7089C28.8859 38.7668 27.8769 39.7979 26.8243 40.7628L28.1757 42.2371C29.2753 41.2292 30.3222 40.1586 31.3504 39.1074L29.9207 37.7089ZM50.083 28.5034C44.9598 28.0765 41.0963 29.1408 37.8986 30.9688C34.7379 32.7756 32.2654 35.312 29.9207 37.7089L31.3504 39.1074C33.7257 36.6793 36.0115 34.3512 38.8911 32.7051C41.7337 31.0801 45.1925 30.1028 49.917 30.4965L50.083 28.5034ZM45.2407 13.6508C47.9861 16.8537 49 22.0204 49 29.5H51C51 21.9796 50.0139 16.1463 46.7593 12.3492L45.2407 13.6508ZM58.8321 11.0547C59.0324 10.7542 59.2034 10.3864 59.2191 9.97121C59.2363 9.51542 59.0617 9.11518 58.7695 8.81698C58.5038 8.54571 58.1719 8.38774 57.8762 8.2895C57.5718 8.18839 57.2357 8.12768 56.8942 8.09245C55.5566 7.95442 53.6651 8.1643 51.8523 8.54306C50.0301 8.92379 48.151 9.50384 46.8355 10.1818C46.1997 10.5095 45.5701 10.9221 45.1885 11.4417C44.9872 11.7158 44.8126 12.0777 44.8069 12.509C44.801 12.9575 44.9794 13.3459 45.2407 13.6508L46.7593 12.3492C46.7528 12.3416 46.8084 12.4102 46.8068 12.5352C46.8053 12.6432 46.7619 12.6781 46.8005 12.6256C46.8987 12.4919 47.1838 12.2523 47.7518 11.9596C48.8439 11.3967 50.5289 10.8628 52.2613 10.5008C54.0031 10.1369 55.6569 9.97539 56.6889 10.0819C56.9399 10.1078 57.1228 10.1467 57.2457 10.1875C57.3772 10.2312 57.3809 10.2575 57.3409 10.2166C57.2744 10.1488 57.2156 10.025 57.2205 9.89572C57.2239 9.80694 57.2544 9.81563 57.1679 9.9453L58.8321 11.0547ZM54.4684 24.855C54.6627 22.4372 54.829 20.4 55.4049 18.2554C55.9761 16.1278 56.9616 13.8603 58.8321 11.0547L57.1679 9.9453C55.1938 12.9065 54.1084 15.3713 53.4733 17.7368C52.8427 20.0852 52.6671 22.302 52.4748 24.6947L54.4684 24.855ZM53.9912 29.6322C54.2262 27.8697 54.3523 26.2992 54.4684 24.855L52.4748 24.6947C52.3585 26.142 52.236 27.6639 52.0088 29.3678L53.9912 29.6322ZM75.3321 40.9453C72.773 37.1068 69.796 33.9847 66.1327 31.826C62.4623 29.6631 58.1583 28.5 53 28.5V30.5C57.8417 30.5 61.7877 31.5869 65.1173 33.549C68.454 35.5153 71.227 38.3932 73.6679 42.0547L75.3321 40.9453ZM74.7 30.1C76.2316 32.1421 77.41 33.9203 77.5669 35.5933C77.6404 36.3777 77.4873 37.1561 76.9753 37.9653C76.4503 38.7949 75.521 39.6975 73.9759 40.6483L75.0241 42.3517C76.729 41.3025 77.9247 40.2051 78.6653 39.0347C79.4189 37.8439 79.6721 36.6223 79.5581 35.4067C79.34 33.0797 77.7684 30.8579 76.3 28.9L74.7 30.1ZM82.6644 19.5136C79.2837 18.9502 76.4116 20.3613 74.8186 22.5336C73.2313 24.6981 72.8898 27.6864 74.7 30.1L76.3 28.9C75.1102 27.3135 75.2687 25.3019 76.4314 23.7164C77.5884 22.1387 79.7163 21.0498 82.3356 21.4864L82.6644 19.5136ZM85.7282 35.6854C88.2333 33.0236 89.1891 29.3346 88.6997 26.1546C88.2084 22.9627 86.2062 20.1039 82.6644 19.5136L82.3356 21.4864C84.7938 21.8961 86.3234 23.8629 86.7229 26.4589C87.1243 29.0668 86.3301 32.1277 84.2718 34.3146L85.7282 35.6854ZM77.7282 44.1854L85.7282 35.6854L84.2718 34.3146L76.2718 42.8146L77.7282 44.1854ZM88.4238 48.872C84.1405 46.9702 80.8981 45.5241 77.6508 42.7407L76.3492 44.2592C79.85 47.26 83.3557 48.81 87.6122 50.6999L88.4238 48.872ZM88.9061 49.0862C88.744 49.0141 88.5832 48.9427 88.4238 48.872L87.6122 50.6999C87.7717 50.7707 87.9321 50.8419 88.0939 50.9138L88.9061 49.0862ZM75.0295 60.6633C78.6412 56.7265 82.8903 52.1417 88.6961 50.9806L88.3039 49.0194C81.7528 50.3296 77.0806 55.4691 73.5557 59.3113L75.0295 60.6633ZM68.8162 65.9487C69.8835 65.5929 70.9077 64.8211 71.8906 63.9167C72.8855 63.0014 73.9343 61.857 75.0295 60.6633L73.5557 59.3113C72.4437 60.5234 71.4561 61.5987 70.5364 62.4449C69.6048 63.3022 68.8362 63.8338 68.1838 64.0513L68.8162 65.9487ZM67.2425 88.4701C72.6195 87.1259 75.7121 83.4206 76.0597 78.7619C76.4014 74.1841 74.0801 68.9089 69.1877 64.274L67.8123 65.7259C72.4199 70.0911 74.3486 74.8159 74.0653 78.6131C73.7879 82.3294 71.3805 85.3741 66.7575 86.5299L67.2425 88.4701ZM66.4855 74.1425C62.4082 76.5889 60.9605 80.4013 61.319 83.5204C61.4965 85.0641 62.1251 86.4831 63.1555 87.4398C64.2133 88.4221 65.6511 88.868 67.2425 88.4701L66.7575 86.5299C65.8489 86.757 65.0992 86.5155 64.5164 85.9742C63.9061 85.4076 63.441 84.4672 63.306 83.2921C63.0395 80.9737 64.0918 77.9111 67.5145 75.8575L66.4855 74.1425ZM66.4188 67.8137C67.8843 68.8606 68.3136 70.1621 68.2064 71.3108C68.0939 72.5147 67.3891 73.6004 66.4855 74.1425L67.5145 75.8575C68.983 74.9764 70.0282 73.312 70.1977 71.4968C70.3724 69.6263 69.6157 67.6394 67.5812 66.1863L66.4188 67.8137ZM36.0039 67.8682C41.3289 70.9111 46.0001 72.6218 50.9868 72.6874C55.9674 72.7529 61.1369 71.1759 67.4614 67.8872L66.5386 66.1128C60.3631 69.324 55.5326 70.747 51.0132 70.6876C46.4999 70.6282 42.1711 69.0889 36.9961 66.1317L36.0039 67.8682ZM34.9008 73.5838C34.6044 73.4542 34.3628 73.1839 34.2234 72.7197C34.0804 72.2439 34.0673 71.6157 34.224 70.9413C34.5435 69.567 35.4744 68.333 36.7747 67.9615L36.2253 66.0385C34.0256 66.6669 32.7065 68.6361 32.276 70.4884C32.0577 71.4273 32.0446 72.4183 32.3079 73.295C32.5747 74.1833 33.1456 74.999 34.0992 75.4162L34.9008 73.5838ZM37.5 88.5C39.1158 88.5 40.3683 87.7098 41.1187 86.4827C41.8458 85.2938 42.0757 83.7512 41.8662 82.1803C41.4445 79.0174 39.2176 75.4724 34.9008 73.5838L34.0992 75.4162C37.7824 77.0276 39.5555 79.9826 39.8838 82.4447C40.0493 83.6863 39.8417 84.7375 39.4125 85.4392C39.0067 86.1027 38.3842 86.5 37.5 86.5V88.5ZM33.8356 64.2526C29.1216 68.4428 26.8465 74.371 27.3169 79.3442C27.5532 81.8418 28.4895 84.1432 30.2162 85.8256C31.953 87.5179 34.404 88.5 37.5 88.5V86.5C34.846 86.5 32.922 85.6696 31.6119 84.3932C30.2917 83.1068 29.5093 81.2832 29.3081 79.1558C28.9035 74.879 30.8784 69.5572 35.1644 65.7474L33.8356 64.2526ZM26.4207 59.4399C28.7455 61.6964 31.1511 64.0359 33.9592 65.8412L35.0408 64.1588C32.4291 62.4799 30.1642 60.2862 27.8137 58.0047L26.4207 59.4399ZM14.2178 50.9594C19.1534 52.411 22.6922 55.8209 26.4207 59.4399L27.8137 58.0047C24.1405 54.4395 20.2655 50.6534 14.7822 49.0406L14.2178 50.9594ZM68 50C68 58.8366 60.8366 66 52 66V68C61.9411 68 70 59.9411 70 50H68ZM52 34C60.8366 34 68 41.1634 68 50H70C70 40.0589 61.9411 32 52 32V34ZM36 50C36 41.1634 43.1634 34 52 34V32C42.0589 32 34 40.0589 34 50H36ZM52 66C43.1634 66 36 58.8366 36 50H34C34 59.9411 42.0589 68 52 68V66Z" fill="white" mask="url(#path-1-inside-1_61_9)"/>
<path d="M44.5 50.5C47.5 49 49.5 48.5 51.5 43.5C53.5 47.5 53 48 58.5 50.5C54 50.5 52.5 53 51.5 56.5C50.5 53 47.5 50.5 44.5 50.5Z" fill="white" stroke="white"/>
</svg>
